<svg width="64" height="61" viewBox="0 0 64 61" fill="none" xmlns="http://www.w3.org/2000/svg">
<path d="M54.656 30.051V29.2064C54.656 27.106 54.6634 25.0056 54.6535 22.9065C54.6448 21.2011 53.4175 19.9429 51.7964 19.9491C50.1741 19.9565 48.979 21.2123 48.9641 22.9313C48.9579 23.6743 49.0112 24.4236 48.9393 25.1604C48.8948 25.6199 48.7486 26.1153 48.5022 26.5017C47.935 27.3946 46.8538 27.7277 45.8507 27.4206C44.8562 27.1159 44.1701 26.2428 44.1602 25.1691C44.1392 22.9597 44.1565 20.7504 44.1478 18.541C44.1416 16.7675 42.9564 15.4957 41.3205 15.4882C39.6845 15.4796 38.477 16.7552 38.4659 18.5162C38.4572 20.0259 38.4696 21.5355 38.4597 23.0452C38.4572 23.3474 38.4423 23.6632 38.3569 23.9505C38.0225 25.0725 36.8893 25.8193 35.797 25.6682C34.5673 25.4985 33.6657 24.5437 33.6533 23.3176C33.631 21.1739 33.6459 19.0302 33.6434 16.8864C33.6409 15.0882 32.5053 13.825 30.8618 13.7891C29.2246 13.7532 28.0233 14.9904 27.9627 16.7725C27.9144 18.2029 26.8704 19.2729 25.5353 19.2605C24.1953 19.2481 23.1575 18.1682 23.1414 16.7415C23.1278 15.5167 23.1476 14.2919 23.134 13.0658C23.1228 12.0615 22.7365 11.2255 21.8856 10.667C20.9741 10.0676 19.9896 10.0094 19.0162 10.4973C17.9548 11.0299 17.4743 11.9512 17.4694 13.1154C17.4582 16.5285 17.478 19.9404 17.452 23.3536C17.4421 24.67 16.3127 25.7177 15.0259 25.7004C13.7516 25.6831 12.6977 24.6626 12.6395 23.3746C12.6184 22.9164 12.6481 22.4557 12.6283 21.9962C12.5429 20.042 10.8338 18.7837 8.98853 19.3076C7.7501 19.6593 6.97236 20.7615 6.96864 22.2006C6.96245 24.5846 6.94883 26.9698 6.98102 29.3538C6.98846 29.9433 6.80269 30.1018 6.23425 30.082C5.0986 30.0424 3.95799 30.0436 2.82235 30.0882C2.35545 30.1068 1.85884 30.2071 1.43777 30.404C0.35909 30.908 -0.198208 32.1638 0.0643416 33.3156C0.367759 34.6444 1.36594 35.442 2.81863 35.4704C3.95552 35.4927 5.09364 35.4729 6.23177 35.4766C6.46212 35.4779 6.69123 35.5039 6.96616 35.5225C6.96616 36.4946 6.95254 37.3888 6.96864 38.2829C7.00827 40.3437 8.89565 41.68 10.7892 40.9988C11.9843 40.5691 12.5874 39.5598 12.6333 37.9077C12.6729 36.5058 13.6773 35.489 15.0321 35.4828C16.3907 35.4766 17.426 36.486 17.4582 37.878C17.478 38.7523 17.4533 39.6279 17.4644 40.5035C17.4805 41.815 18.2298 42.8701 19.4038 43.259C21.3023 43.8881 23.1278 42.5122 23.1352 40.4279C23.1451 37.4532 23.1266 34.4772 23.1439 31.5025C23.1526 30.0151 24.2573 28.9897 25.7161 29.059C26.993 29.1185 27.9552 30.1736 27.9589 31.5718C27.9689 35.9039 27.9441 40.2347 27.9837 44.5668C27.9887 45.1711 28.1645 45.8374 28.4593 46.3625C29.0649 47.4412 30.39 47.8722 31.6049 47.5316C32.826 47.1886 33.6372 46.0814 33.6421 44.7166C33.6508 42.4193 33.6248 40.122 33.6545 37.826C33.6719 36.512 34.7233 35.5051 36.0063 35.489C37.3352 35.4717 38.3916 36.4637 38.4547 37.8C38.4733 38.1925 38.4609 38.5876 38.4634 38.9814C38.4758 40.7214 39.6374 41.9549 41.2734 41.9673C42.9478 41.9809 44.1379 40.7487 44.1478 38.9814C44.1553 37.6476 44.1367 36.3126 44.1553 34.9775C44.1751 33.5967 45.229 32.5316 46.5479 32.5242C47.8619 32.518 48.9282 33.5868 48.9542 34.9627C48.9728 35.925 48.9554 36.8872 48.9616 37.8507C48.9728 39.6205 50.1617 40.8874 51.8051 40.8886C53.4485 40.8899 54.6436 39.6205 54.6535 37.8582C54.6585 37.1436 54.6547 36.429 54.6547 35.6376C54.999 35.6376 55.2554 35.6376 55.5117 35.6376C57.3706 35.6389 59.2308 35.6488 61.0897 35.6389C62.8062 35.6302 63.9988 34.4747 63.9988 32.8437C64 31.2115 62.8123 30.0634 61.0884 30.0535C59.2295 30.0436 57.3694 30.0523 55.5105 30.0523C55.2554 30.051 54.999 30.051 54.656 30.051Z" fill="#FF3797"/>
<path d="M33.6436 5.66462C33.6436 4.74694 33.6547 3.82925 33.6411 2.91157C33.6176 1.24959 32.3977 0.0024778 30.81 9.2156e-07C29.2199 -0.00123752 27.9839 1.24587 27.9703 2.90166C27.9554 4.71474 27.9554 6.52905 27.9691 8.34213C27.9814 10.0153 29.1877 11.2351 30.7989 11.2364C32.4138 11.2376 33.6188 10.0202 33.6399 8.35327C33.6522 7.45664 33.6423 6.56125 33.6436 5.66462Z" fill="#FF3797"/>
<path d="M33.6433 55.2936C33.6433 54.5295 33.6594 53.7641 33.6396 53C33.6 51.3974 32.3429 50.1664 30.7837 50.1838C29.2369 50.2011 28.0022 51.4012 27.9712 52.9752C27.9428 54.4601 27.944 55.9462 27.97 57.4311C27.9985 59.0498 29.232 60.2746 30.7912 60.2845C32.3714 60.2944 33.6123 59.0399 33.6408 57.3903C33.6532 56.6918 33.6433 55.9921 33.6433 55.2936Z" fill="#FF3797"/>
<path d="M41.286 12.9467C42.8737 12.9554 44.1233 11.7367 44.1493 10.1515C44.1766 8.55519 42.8985 7.26969 41.2959 7.27836C39.7182 7.28703 38.4574 8.54653 38.4649 10.1094C38.4735 11.6971 39.707 12.938 41.286 12.9467Z" fill="#FF3797"/>
<path d="M41.3135 43.6992C39.7382 43.698 38.4849 44.9401 38.4651 46.5204C38.4452 48.0982 39.7654 49.4245 41.3345 49.401C42.8974 49.3775 44.1631 48.087 44.1495 46.5315C44.1359 44.9513 42.8838 43.7005 41.3135 43.6992Z" fill="#FF3797"/>
<path d="M20.3299 7.60244C21.9151 7.58881 23.1635 6.32437 23.1387 4.75774C23.1139 3.17873 21.852 1.94401 20.2767 1.95515C18.71 1.9663 17.4543 3.24313 17.4679 4.81099C17.4827 6.38753 18.741 7.61606 20.3299 7.60244Z" fill="#FF3797"/>
<path d="M20.2891 51.5316C21.9003 51.5366 23.1524 50.3068 23.1375 48.734C23.1239 47.1971 21.8693 45.9599 20.3176 45.9512C18.7448 45.9425 17.4506 47.2219 17.463 48.7711C17.4766 50.3167 18.715 51.5279 20.2891 51.5316Z" fill="#FF3797"/>
<path d="M9.80956 49.3318C11.3712 49.3281 12.6245 48.1008 12.6369 46.5664C12.6493 45.0158 11.3489 43.7167 9.7947 43.7266C8.22931 43.7353 6.93638 45.0418 6.96734 46.5812C6.9983 48.1293 8.24541 49.3355 9.80956 49.3318Z" fill="#FF3797"/>
<path d="M54.6557 30.0509C54.9988 30.0509 55.2551 30.0509 55.5115 30.0509C57.3704 30.0509 59.2305 30.041 61.0894 30.0521C62.8133 30.062 63.9997 31.2113 63.9997 32.8423C63.9985 34.4734 62.8071 35.6288 61.0906 35.6375C59.2317 35.6474 57.3716 35.6375 55.5127 35.6363C55.2564 35.6363 55 35.6363 54.6557 35.6363C54.6557 36.4276 54.6594 37.1422 54.6545 37.8568C54.6433 39.6191 53.4482 40.8897 51.8061 40.8872C50.1627 40.886 48.975 39.6191 48.9626 37.8493C48.9564 36.8871 48.9725 35.9236 48.9552 34.9613C48.9292 33.5866 47.8629 32.5166 46.5489 32.5228C45.2299 32.529 44.176 33.5941 44.1562 34.9762C44.1376 36.31 44.155 37.645 44.1488 38.98C44.1401 40.7473 42.95 41.9795 41.2744 41.9659C39.6384 41.9523 38.4767 40.7188 38.4644 38.98C38.4619 38.5862 38.4743 38.1924 38.4557 37.7986C38.3925 36.4623 37.3361 35.4703 36.0073 35.4876C34.7255 35.505 33.6728 36.5106 33.6555 37.8246C33.6258 40.1206 33.6518 42.4179 33.6431 44.7152C33.6382 46.0812 32.827 47.1872 31.6059 47.5302C30.3922 47.8708 29.0658 47.4398 28.4602 46.3611C28.1655 45.8348 27.9896 45.1698 27.9847 44.5654C27.9451 40.2346 27.9698 35.9025 27.9599 31.5705C27.9562 30.171 26.9939 29.1171 25.7171 29.0577C24.2595 28.9895 23.1535 30.015 23.1449 31.5011C23.1275 34.4758 23.1461 37.4518 23.1362 40.4265C23.1288 42.5108 21.3045 43.888 19.4048 43.2576C18.2307 42.8687 17.4815 41.8136 17.4654 40.5021C17.4542 39.6277 17.479 38.7522 17.4592 37.8766C17.427 36.4846 16.3929 35.474 15.0331 35.4814C13.6782 35.4876 12.6726 36.5044 12.6342 37.9063C12.5884 39.5584 11.9853 40.5677 10.7902 40.9975C8.89663 41.6786 7.00925 40.3423 6.96962 38.2816C6.95228 37.3874 6.96714 36.492 6.96714 35.5211C6.69221 35.5037 6.46309 35.4765 6.23274 35.4753C5.09462 35.4703 3.95773 35.4914 2.81961 35.4691C1.36816 35.4406 0.369974 34.643 0.0653181 33.3142C-0.197231 32.1624 0.360067 30.9067 1.43875 30.4026C1.85982 30.2057 2.35643 30.1054 2.82332 30.0868C3.95897 30.041 5.09833 30.0397 6.23522 30.0806C6.80367 30.1004 6.99067 29.9419 6.982 29.3524C6.9498 26.9684 6.96342 24.5832 6.96962 22.1992C6.97333 20.7601 7.75107 19.6579 8.98951 19.3062C10.8348 18.7823 12.5438 20.0406 12.6293 21.9948C12.6491 22.4531 12.6194 22.9138 12.6404 23.3732C12.6974 24.6612 13.7513 25.6817 15.0269 25.699C16.3136 25.7164 17.4431 24.6686 17.453 23.3522C17.479 19.939 17.4592 16.5271 17.4703 13.114C17.4741 11.9499 17.9558 11.0272 19.0172 10.4959C19.9906 10.008 20.9751 10.0674 21.8866 10.6656C22.7362 11.2241 23.1238 12.0601 23.135 13.0645C23.1486 14.2893 23.1288 15.5141 23.1424 16.7401C23.1585 18.1668 24.1951 19.248 25.5363 19.2591C26.8713 19.2715 27.9153 18.2015 27.9636 16.7711C28.0243 14.9878 29.2256 13.7518 30.8628 13.7877C32.505 13.8236 33.6406 15.0868 33.6444 16.885C33.6481 19.0288 33.632 21.1725 33.6543 23.3163C33.6666 24.5423 34.5682 25.4971 35.798 25.6668C36.8903 25.8179 38.0235 25.0711 38.3579 23.9491C38.4433 23.6618 38.4594 23.346 38.4606 23.0438C38.4706 21.5341 38.4582 20.0245 38.4668 18.5148C38.4767 16.7538 39.6855 15.4794 41.3214 15.4868C42.9574 15.4955 44.1426 16.7662 44.1488 18.5396C44.1575 20.749 44.1401 22.9583 44.1612 25.1677C44.1711 26.2415 44.8572 27.1146 45.8517 27.4192C46.8548 27.7263 47.9359 27.3932 48.5031 26.5003C48.7484 26.1139 48.8957 25.6185 48.9403 25.1591C49.0121 24.4222 48.9577 23.6729 48.9651 22.9299C48.9799 21.2121 50.175 19.9551 51.7974 19.9477C53.4185 19.9403 54.6458 21.1998 54.6545 22.9051C54.6656 25.0055 54.657 27.1059 54.657 29.205L54.6557 30.0509Z" fill="#FF3797"/>
<path d="M33.643 5.66436C33.643 6.55975 33.6516 7.45638 33.6405 8.35178C33.6194 10.02 32.4144 11.2361 30.7995 11.2349C29.1883 11.2336 27.9821 10.0138 27.9697 8.34063C27.956 6.52755 27.9548 4.71324 27.9697 2.90017C27.9833 1.24561 29.2193 -0.00149663 30.8094 0.000980245C32.3971 0.00345712 33.617 1.25057 33.6405 2.91255C33.6541 3.829 33.643 4.74668 33.643 5.66436Z" fill="#FF3797"/>
<path d="M33.6435 55.2936C33.6435 55.9921 33.6534 56.6918 33.6423 57.3903C33.6138 59.0386 32.3729 60.2944 30.7926 60.2845C29.2334 60.2746 27.9999 59.0498 27.9715 57.4311C27.9454 55.9462 27.943 54.4601 27.9727 52.9752C28.0037 51.4012 29.2371 50.2011 30.7852 50.1838C32.3444 50.1664 33.6014 51.3974 33.641 53C33.6584 53.7641 33.6435 54.5282 33.6435 55.2936Z" fill="#FF3797"/>
<path d="M41.286 12.9467C39.707 12.938 38.4735 11.6971 38.4649 10.1094C38.4574 8.54653 39.7169 7.28703 41.2959 7.27836C42.8985 7.26969 44.1766 8.55643 44.1493 10.1515C44.1233 11.7367 42.8737 12.9554 41.286 12.9467Z" fill="#FF3797"/>
<path d="M41.3135 43.6992C42.8838 43.7005 44.1346 44.95 44.1495 46.5315C44.1631 48.087 42.8974 49.3775 41.3345 49.401C39.7654 49.4245 38.4452 48.0994 38.4651 46.5204C38.4849 44.9414 39.7394 43.6992 41.3135 43.6992Z" fill="#FF3797"/>
<path d="M20.3306 7.60244C18.7417 7.61606 17.4835 6.38753 17.4698 4.81099C17.4562 3.24313 18.712 1.9663 20.2786 1.95515C21.8551 1.94401 23.1159 3.17873 23.1406 4.75774C23.1642 6.32437 21.9158 7.58881 20.3306 7.60244Z" fill="#FF3797"/>
<path d="M20.2889 51.5319C18.7148 51.5282 17.4776 50.317 17.464 48.7702C17.4504 47.2209 18.7458 45.9416 20.3186 45.9502C21.8703 45.9589 23.1236 47.1973 23.1385 48.733C23.1509 50.3071 21.9001 51.5368 20.2889 51.5319Z" fill="#FF3797"/>
<path d="M9.80956 49.3318C8.24541 49.3355 6.9983 48.1293 6.96734 46.5812C6.93638 45.0418 8.22931 43.7353 9.7947 43.7266C11.3489 43.7179 12.6481 45.0158 12.6369 46.5664C12.6258 48.1008 11.3712 49.3281 9.80956 49.3318Z" fill="#FF3797"/>
</svg>
